<?xml version="1.0" encoding="utf-8"?>
<!-- Generator: Adobe Illustrator 25.0.0, SVG Export Plug-In . SVG Version: 6.00 Build 0)  -->
<svg version="1.1" id="Layer_1" xmlns="http://www.w3.org/2000/svg" xmlns:xlink="http://www.w3.org/1999/xlink" x="0px" y="0px"
	 width="226.5px" height="298.9px" viewBox="0 0 226.5 298.9" enable-background="new 0 0 226.5 298.9" xml:space="preserve">
<path fill="#190094" stroke="#5A5A5A" stroke-width="10" stroke-miterlimit="10" d="M113.5,5H5v108.2c0,14,2.2,28,6.7,41.2
	C23.5,189.6,54.3,256.8,113,293l0,0c58.7-36.2,90-103.4,101.8-138.5c4.5-13.3,6.7-27.2,6.7-41.2V5H113H113.5z"/>
<path fill="#FF0000" stroke="#5A5A5A" stroke-width="10" stroke-miterlimit="10" d="M113.5,5H5v108.2c0,14,2.2,28,6.7,41.2
	C23.5,189.6,54.3,256.8,113,293l0,0c0-57.5,0-288,0-288H113.5z"/>
</svg>
